<svg version="1.1" id="Layer_1" xmlns="http://www.w3.org/2000/svg" xmlns:xlink="http://www.w3.org/1999/xlink" x="0px" y="0px"
	 width="100%" viewBox="0 0 500 500" enable-background="new 0 0 500 500" xml:space="preserve">
<path fill="#000000" opacity="1.000000" stroke="none" 
	d="
M347.000000,501.000000 
	C231.333359,501.000000 116.166725,501.000000 1.000062,501.000000 
	C1.000041,334.333405 1.000041,167.666794 1.000021,1.000151 
	C167.666550,1.000101 334.333099,1.000101 500.999756,1.000050 
	C500.999817,167.666519 500.999817,334.333038 500.999908,500.999786 
	C449.833344,501.000000 398.666656,501.000000 347.000000,501.000000 
M350.972260,280.475128 
	C350.972260,280.475128 350.777008,280.052490 350.900269,279.292542 
	C349.714844,276.481201 348.875824,273.454407 347.284332,270.895660 
	C340.242950,259.574738 332.985291,248.388351 326.004944,236.475800 
	C325.687134,235.965118 325.369354,235.454437 325.003357,234.999664 
	C325.003357,234.999664 325.068146,234.964203 325.027924,234.166855 
	C323.975098,230.807541 322.922272,227.448212 322.023956,223.279434 
	C322.390137,221.500183 322.756348,219.720932 323.739685,217.710709 
	C326.232574,214.876892 329.059967,212.268860 331.154297,209.166031 
	C336.963379,200.559647 342.467224,191.747223 348.656311,182.684479 
	C348.784668,181.188248 348.490051,179.475647 349.123260,178.237625 
	C350.803619,174.952499 353.090576,171.975815 354.746979,168.680801 
	C356.328339,165.535095 357.419098,162.142776 358.725525,158.858871 
	C358.097076,158.614517 357.468628,158.370148 356.840149,158.125793 
	C355.868958,160.091431 354.897766,162.057053 353.192322,164.033829 
	C352.403290,165.322693 351.614258,166.611542 350.921417,167.918701 
	C350.921417,167.918701 350.879944,167.830017 350.164490,167.590652 
	C348.219452,171.059036 346.274414,174.527420 344.079285,178.487732 
	C344.021149,178.662247 343.963043,178.836777 343.270966,179.234360 
	C340.433899,182.435699 337.596832,185.637024 334.068726,188.904861 
	C331.693176,191.274643 329.317596,193.644409 326.184509,195.984421 
	C325.321625,196.320312 324.409210,196.565887 323.604431,197.007645 
	C320.063019,198.951736 316.552704,200.952454 312.951904,202.169662 
	C308.275665,190.353317 304.171661,178.267181 298.763550,166.795868 
	C293.267944,155.138855 287.535339,143.330185 280.030365,132.943542 
	C267.756042,115.956322 249.724808,112.728226 229.710129,115.311394 
	C226.446976,116.539474 223.183838,117.767555 219.385834,119.182877 
	C218.971252,119.768959 218.556671,120.355042 217.458084,121.287247 
	C213.294830,134.254837 209.220047,147.252518 204.833298,160.144058 
	C204.388077,161.452423 202.166214,162.716919 200.595093,162.985489 
	C193.375870,164.219589 185.722748,163.987030 178.899719,166.284042 
	C147.070847,176.999390 136.449936,200.989792 144.102951,231.263840 
	C146.608353,241.174744 153.901611,247.927567 161.027176,255.566177 
	C163.069916,257.516815 165.112671,259.467468 166.967255,262.058105 
	C165.863922,263.988403 164.805557,265.946106 163.648392,267.843567 
	C160.770279,272.562744 157.847168,277.254517 154.349640,282.256226 
	C153.569214,283.506897 152.788773,284.757538 151.356277,286.225647 
	C149.985687,288.108826 148.615112,289.992004 147.361572,292.671539 
	C151.601807,293.112518 155.842041,293.553497 160.227676,294.765198 
	C160.583649,295.110291 160.881943,295.644226 161.303955,295.773163 
	C176.574341,300.438568 193.151855,291.411407 201.034851,280.947235 
	C204.041306,276.956360 205.857620,271.492462 212.958145,271.005341 
	C214.415451,270.888123 215.872757,270.770874 217.985245,270.263763 
	C224.679016,269.162048 231.570877,268.726624 238.021988,266.808716 
	C248.762833,263.615479 259.221130,259.471893 270.602142,255.966034 
	C274.064575,254.596359 277.526978,253.226700 281.725250,251.985092 
	C282.500336,252.173538 283.545685,252.103836 284.009552,252.589508 
	C290.043365,258.907318 296.099548,265.209686 301.938019,271.706543 
	C308.072723,278.533051 313.499237,286.074402 320.147980,292.333923 
	C324.851410,296.761993 331.114410,299.412231 338.919556,296.960510 
	C343.659851,295.461121 349.205566,295.735962 352.705109,290.683868 
	C352.705109,290.683868 352.845215,290.375061 353.394562,290.009613 
	C352.966492,287.964020 352.538452,285.918457 351.972870,283.437256 
	C351.972870,283.437256 351.837219,283.001007 351.994995,282.385223 
	C351.696991,281.897644 351.399017,281.410034 350.972260,280.475128 
M290.185059,319.458893 
	C290.129700,330.264221 290.057831,341.069580 290.061371,351.874908 
	C290.061584,352.502716 290.673492,353.130341 291.685516,353.838348 
	C292.142395,353.801880 292.599304,353.765411 293.878784,353.900360 
	C296.655151,354.016174 299.856720,354.669342 298.943939,349.117096 
	C298.943939,346.601166 298.943939,344.085205 298.943939,340.588654 
	C302.844238,344.778320 306.228668,347.732666 308.758453,351.294128 
	C312.375275,356.385956 316.976227,352.704376 321.445404,353.031525 
	C316.605621,347.377075 311.765869,341.722656 306.910095,336.049500 
	C310.891235,330.843201 314.681091,325.887024 319.151733,320.040588 
	C307.002686,316.659576 305.425964,327.684509 299.286957,331.770416 
	C299.092621,330.625824 298.956238,329.822479 298.953735,328.186768 
	C298.913544,326.785431 298.873352,325.384125 298.936920,323.245605 
	C298.896057,322.504578 298.855225,321.763580 298.889008,320.362396 
	C298.250153,319.990326 297.611267,319.618256 296.158264,319.096619 
	C294.785187,319.157349 293.412079,319.218079 291.528168,319.144897 
	C291.353027,319.161194 291.177856,319.177490 290.185059,319.458893 
M140.911728,380.938660 
	C142.895782,380.938660 144.879852,380.938660 146.863907,380.938660 
	C146.890686,380.499176 146.917450,380.059692 146.944214,379.620209 
	C145.977615,379.375275 145.011002,379.130310 144.005630,378.052155 
	C143.493500,374.440063 142.981369,370.828003 142.432419,366.956329 
	C141.308289,367.095459 140.141312,367.239899 138.432327,367.451447 
	C139.011078,372.167419 139.540802,376.483887 140.911728,380.938660 
M272.821655,353.503784 
	C272.880951,342.699127 272.957214,331.894440 272.955811,321.089783 
	C272.955719,320.466125 272.323700,319.842560 271.140656,319.115784 
	C269.443878,319.166290 267.747131,319.216766 265.290588,319.464050 
	C264.607513,323.521759 263.924469,327.579468 263.225525,331.731506 
	C260.333099,331.731506 257.438751,331.731506 254.002213,331.731506 
	C254.002213,329.187744 253.807739,326.901154 254.042648,324.659576 
	C254.533554,319.975433 252.631744,318.182312 247.381973,319.122589 
	C246.935715,319.138824 246.489456,319.155060 245.278046,319.526489 
	C245.190613,330.747742 245.096802,341.968964 245.058319,353.190399 
	C245.057495,353.431030 245.692642,353.673828 246.698807,353.888550 
	C247.141373,353.842896 247.583939,353.797241 248.667526,353.911682 
	C249.100632,353.854675 249.533722,353.797668 250.625183,353.821228 
	C251.062378,353.769806 251.499588,353.718384 252.749817,353.743561 
	C253.102600,349.821259 253.455383,345.898987 253.939499,341.190491 
	C254.432053,340.491974 255.021851,339.141663 255.401718,339.198334 
	C258.351837,339.638489 261.261505,340.349976 264.047150,341.894104 
	C264.029022,343.382477 263.998199,344.870850 263.994873,346.359253 
	C263.977295,354.232941 263.979706,354.232941 272.821655,353.503784 
M278.862793,353.896362 
	C280.937653,353.844818 283.012512,353.793243 285.780396,353.305481 
	C285.824341,344.812286 285.939941,336.318481 285.872437,327.826172 
	C285.849609,324.957825 285.362793,322.093109 284.513031,319.164276 
	C284.324585,319.205139 284.136169,319.246033 283.304901,319.150452 
	C282.867950,319.159637 282.430969,319.168854 281.501007,319.064117 
	C281.335785,319.098114 281.170563,319.132111 280.260529,319.082916 
	C279.513733,319.122467 278.766907,319.161987 277.187408,319.454376 
	C277.127045,330.261383 277.049988,341.068390 277.048279,351.875397 
	C277.048187,352.514435 277.654297,353.153564 278.862793,353.896362 
M209.582611,353.911438 
	C211.204834,353.911438 212.827057,353.911438 215.003403,353.911438 
	C210.579529,342.889740 206.480392,332.230774 201.901291,321.782135 
	C201.263458,320.326721 198.243225,319.182007 196.361649,319.232330 
	C194.798447,319.274109 192.708237,320.968506 191.875397,322.490936 
	C190.170883,325.606781 189.184067,329.110901 187.848068,332.433563 
	C185.012665,339.485321 182.142944,346.523254 179.061859,354.122894 
	C183.091339,353.039551 187.982864,356.265167 189.470108,350.753113 
	C191.144821,344.546143 195.849380,347.749542 199.261703,346.997406 
	C202.618835,346.257446 203.786255,348.472961 204.999405,351.110321 
	C205.571564,352.354187 207.453476,352.995605 209.582611,353.911438 
M220.432037,321.980682 
	C215.074585,329.934113 218.072754,335.979370 226.645309,339.905945 
	C228.797089,340.891602 230.604935,342.628113 232.570831,344.019562 
	C232.347229,344.792999 232.123627,345.566406 231.900024,346.339844 
	C229.211563,346.339844 226.284378,347.034210 223.880066,346.207642 
	C217.093292,343.874451 217.177856,343.628448 215.340881,350.869659 
	C221.819397,355.388367 228.846390,356.092102 236.145676,353.325439 
	C240.992432,351.488342 243.444138,343.417358 240.138214,339.811066 
	C237.784576,337.243591 234.570831,335.460968 231.725006,333.349518 
	C229.668854,331.823975 227.586548,330.333710 225.473206,328.796661 
	C229.927994,323.814606 233.532425,327.277649 238.377502,328.444763 
	C238.501450,325.459412 239.748962,321.626129 238.511154,320.482239 
	C234.195786,316.494385 225.926529,317.320221 220.432037,321.980682 
M240.004013,374.509796 
	C240.004013,376.601227 240.004013,378.692688 240.004013,382.212555 
	C244.254364,380.842682 248.090927,380.493408 250.498260,378.455688 
	C251.700134,377.438354 251.020691,372.972809 249.900452,370.705078 
	C247.864517,366.583618 243.809280,368.134399 239.988022,368.267578 
	C239.988022,370.286591 239.988022,371.925568 240.004013,374.509796 
M328.981873,379.488678 
	C329.473511,378.311829 330.595490,376.965027 330.333008,375.991486 
	C329.670929,373.536102 328.988220,370.183197 327.194458,369.168182 
	C325.028534,367.942627 321.389343,367.980072 319.001953,368.962799 
	C317.437714,369.606689 316.108551,372.916443 316.160370,374.995209 
	C316.310181,381.007751 321.512054,382.988251 328.981873,379.488678 
M367.025085,378.877045 
	C367.682953,379.846497 368.340790,380.815918 368.998657,381.785370 
	C369.887390,380.426178 370.776154,379.066956 371.602905,377.802582 
	C372.359192,378.616150 373.421844,379.759216 374.702667,381.136993 
	C375.521912,377.733124 376.623749,374.729248 376.783508,371.676117 
	C376.843048,370.538025 374.895996,368.670746 373.516113,368.233490 
	C371.628204,367.635254 369.408478,368.084015 367.027771,368.084015 
	C367.027771,371.775452 367.027771,374.891266 367.025085,378.877045 
M159.985535,374.216827 
	C159.491730,375.532715 158.997925,376.848633 158.025513,379.439941 
	C157.035492,376.256439 156.505051,374.593445 156.002457,372.922028 
	C155.546738,371.406555 155.121368,369.881989 154.457932,367.582733 
	C151.516800,374.914398 152.748795,380.539795 157.136444,381.514282 
	C161.966843,382.587067 162.937134,378.890625 163.799316,375.402802 
	C164.929321,370.831573 163.956955,368.904419 159.986115,368.382874 
	C159.986115,370.065582 159.986115,371.704376 159.985535,374.216827 
M336.997589,371.652527 
	C337.598083,375.055145 335.506470,379.050964 339.612091,382.677399 
	C340.387756,380.039551 340.945953,378.141205 341.504181,376.242859 
	C341.820618,376.516144 342.137054,376.789429 342.453522,377.062714 
	C343.958405,375.364502 345.886566,373.846985 346.731995,371.867188 
	C347.016693,371.200439 344.481323,368.228210 343.358368,368.297974 
	C341.225433,368.430481 337.305237,365.544891 336.997589,371.652527 
M356.472687,381.007843 
	C357.883972,380.922852 359.295258,380.837830 360.000702,380.795349 
	C359.756012,376.443115 359.531616,372.451996 359.280426,367.984009 
	C357.109009,367.984009 354.682709,367.984009 352.520294,367.984009 
	C352.520294,372.592987 352.520294,376.672058 352.520294,380.991150 
	C353.665771,380.991150 354.643005,380.991150 356.472687,381.007843 
M223.137817,369.669006 
	C220.352997,369.701324 217.121445,368.866272 214.907379,370.006683 
	C212.633362,371.177948 213.886429,379.609528 216.592117,382.333618 
	C217.294540,380.542816 217.889252,379.026611 218.480179,377.520020 
	C221.643661,378.839264 223.933640,375.713043 223.137817,369.669006 
M288.998962,376.161530 
	C288.909790,377.896027 288.820618,379.630524 288.678833,382.388611 
	C291.376007,381.644257 295.431061,381.076355 295.443970,380.427887 
	C295.505981,377.317780 294.474640,374.185852 293.813232,370.972015 
	C293.950073,370.930145 295.402588,370.485443 296.855103,370.040741 
	C296.803802,369.596985 296.752502,369.153198 296.701233,368.709442 
	C293.949310,368.709442 291.197388,368.709442 289.002930,368.709442 
	C289.002930,370.774902 289.002930,373.039734 288.998962,376.161530 
M265.040039,374.514008 
	C264.388947,373.274170 263.824341,371.977722 263.060638,370.811615 
	C262.398468,369.800568 261.510742,368.937286 260.722717,368.008667 
	C259.818268,368.924744 258.323151,369.732635 258.131409,370.779297 
	C257.722870,373.009430 258.204987,375.388794 257.936768,377.661530 
	C257.384277,382.343048 260.523804,381.963135 263.374359,381.713501 
	C267.391632,381.361725 265.375885,379.328217 264.503571,377.478790 
	C264.251343,376.944031 264.843842,376.010895 265.040039,374.514008 
M199.970673,378.261597 
	C201.296814,383.552399 205.046799,379.942688 207.986877,380.057129 
	C207.109177,379.276337 206.231491,378.495544 205.353790,377.714752 
	C205.764648,377.602539 206.175522,377.490356 206.586395,377.378143 
	C206.207123,375.294495 206.068176,373.124176 205.359833,371.159149 
	C204.924164,369.950531 203.618301,369.055603 202.703156,368.019806 
	C201.796249,369.129486 200.395004,370.122162 200.098083,371.376251 
	C199.650421,373.266937 199.974182,375.340302 199.970673,378.261597 
M193.194839,370.880035 
	C193.003937,369.948364 192.862106,368.221375 192.614639,368.206055 
	C189.596909,368.019836 186.563644,368.085052 183.534424,368.085052 
	C188.307220,370.935028 186.720856,375.500397 187.154266,379.490814 
	C187.244095,380.317719 188.476227,381.020569 189.181900,381.780609 
	C189.770981,380.898834 190.665039,380.088257 190.890823,379.121613 
	C191.517944,376.436890 191.867096,373.687195 193.194839,370.880035 
M125.987114,377.090729 
	C126.291824,378.602295 126.596542,380.113892 126.949348,381.864044 
	C129.303085,379.088654 131.095490,376.975128 133.115433,374.593323 
	C131.681717,373.710724 130.316208,372.870117 128.895813,371.995697 
	C130.551102,371.000153 131.894928,370.191925 133.238770,369.383698 
	C133.078613,369.056519 132.918457,368.729370 132.758301,368.402191 
	C130.581635,368.402191 128.404968,368.402191 126.300995,368.402191 
	C126.158806,369.105316 126.042862,369.423035 126.038307,369.742340 
	C126.007599,371.894257 126.000511,374.046539 125.987114,377.090729 
M175.702164,380.672913 
	C175.811447,378.197418 175.841125,375.715271 176.046036,373.247742 
	C176.524338,367.487946 176.388153,367.355713 171.027267,368.432556 
	C171.359131,371.580383 171.713821,374.598907 171.983475,377.624969 
	C172.160309,379.609619 171.593414,382.132751 175.702164,380.672913 
M306.010925,369.713104 
	C305.207367,367.183136 303.936768,367.536194 303.154846,369.534485 
	C302.648254,370.829132 303.181458,372.490295 302.946808,373.938293 
	C301.604462,382.220825 301.776855,382.431885 309.403503,380.644806 
	C309.581299,380.603180 309.659515,380.136505 309.784149,379.868103 
	C309.329681,379.965851 308.875214,380.063629 308.420746,380.161377 
	C307.625122,376.968292 306.829468,373.775238 306.010925,369.713104 
M275.065247,374.368408 
	C275.442535,376.920013 275.819855,379.471588 276.197174,382.023193 
	C276.635803,382.029144 277.074402,382.035095 277.513031,382.041077 
	C279.312714,377.598083 281.112366,373.155121 282.912048,368.712158 
	C282.615021,368.329468 282.317993,367.946777 282.020935,367.564117 
	C280.686157,368.584961 279.302734,369.549347 278.031677,370.644196 
	C276.982758,371.547699 276.066803,372.605560 275.065247,374.368408 
z"/>
<path fill="#FDF7FD" opacity="1.000000" stroke="none" 
	d="
M212.087906,271.045258 
	C205.857620,271.492462 204.041306,276.956360 201.034851,280.947235 
	C193.151855,291.411407 176.574341,300.438568 161.303955,295.773163 
	C160.881943,295.644226 160.583649,295.110291 160.565369,294.377808 
	C180.160919,291.615967 194.261490,281.454437 202.213028,264.111267 
	C208.768555,249.812973 213.567169,234.709152 219.387146,219.700806 
	C220.360825,217.081711 220.761093,214.548843 221.897003,212.405914 
	C223.788467,208.837616 222.384430,206.906403 219.077225,206.214172 
	C211.545212,204.637589 203.947449,203.374176 196.373520,201.999374 
	C191.827728,201.174210 190.056335,203.530746 189.743698,207.842316 
	C189.585342,207.980072 189.186295,208.110382 189.104599,207.729462 
	C188.260971,207.155243 187.329239,206.593292 186.774155,206.849014 
	C185.767410,207.312744 184.908203,208.191177 184.123810,209.024841 
	C182.043839,211.235443 179.054062,213.207520 178.231873,215.838684 
	C177.012863,219.739838 177.995300,223.858200 182.235123,226.500946 
	C181.407669,229.905365 180.660919,232.907379 179.726898,236.070587 
	C179.282532,236.485809 179.191986,236.789474 179.247284,237.173874 
	C179.226532,237.204971 179.182129,237.265137 178.849091,237.205078 
	C177.436813,236.433289 176.357574,235.721573 175.049255,234.744720 
	C161.713028,218.663620 168.301178,198.342316 188.323532,194.151245 
	C194.865692,192.781860 202.053467,192.287720 208.584274,193.441238 
	C243.983002,199.693588 272.005341,219.445847 297.155121,243.807007 
	C313.353271,259.497253 326.732574,277.503387 338.128906,296.967285 
	C331.114410,299.412231 324.851410,296.761993 320.147980,292.333923 
	C313.499237,286.074402 308.072723,278.533051 301.938019,271.706543 
	C296.099548,265.209686 290.043365,258.907318 284.009552,252.589508 
	C283.545685,252.103836 282.500336,252.173538 281.358765,251.548035 
	C280.904480,250.299545 281.131134,249.161316 280.680145,248.727371 
	C276.316223,244.528320 271.939758,240.325760 267.288635,236.458847 
	C266.556641,235.850266 264.433655,236.914825 262.565216,237.136597 
	C255.969559,239.037964 249.851883,241.386475 243.532196,242.880554 
	C236.112732,244.634644 228.517776,245.646408 220.800781,246.709747 
	C215.117157,246.093674 214.635025,250.120651 213.713776,254.221497 
	C212.597458,256.954865 211.757599,259.472198 210.651413,262.206482 
	C209.155365,264.951996 207.925644,267.480530 206.415955,270.584717 
	C208.957291,270.791077 210.522598,270.918152 212.087906,271.045258 
M252.296951,235.114548 
	C254.556854,234.282639 256.816742,233.450729 259.838196,232.338486 
	C251.244858,223.753555 241.890778,217.723251 230.944473,212.499207 
	C227.201462,221.617310 222.436310,229.970383 220.435059,241.104095 
	C231.646713,238.903000 241.541855,236.960358 252.296951,235.114548 
z"/>
<path fill="#D408F6" opacity="1.000000" stroke="none" 
	d="
M160.783218,254.864105 
	C153.901611,247.927567 146.608353,241.174744 144.102951,231.263840 
	C136.449936,200.989792 147.070847,176.999390 178.899719,166.284042 
	C185.722748,163.987030 193.375870,164.219589 200.595093,162.985489 
	C202.166214,162.716919 204.388077,161.452423 204.833298,160.144058 
	C209.220047,147.252518 213.294830,134.254837 218.193069,121.069946 
	C220.942017,121.225845 222.955994,121.599045 224.966614,122.365677 
	C221.297897,135.052185 217.741486,147.379440 213.905716,159.619125 
	C212.631348,163.685562 212.284927,166.341034 217.868134,166.242599 
	C219.916519,166.206467 221.985687,167.349091 224.404053,168.006149 
	C226.835251,168.715439 228.907791,169.372589 231.392090,170.062561 
	C232.899948,170.050537 233.996002,170.005722 235.362152,170.178284 
	C239.021317,171.969513 242.410385,173.543320 245.996002,175.418335 
	C252.965012,179.199570 259.737457,182.679581 266.668335,186.413177 
	C270.863800,189.268524 274.971832,191.767639 278.920624,194.497116 
	C284.331604,198.237305 289.621735,202.152359 295.251953,206.170990 
	C296.710876,207.700836 297.794983,209.140213 299.066315,210.388962 
	C306.597198,217.786163 314.157288,225.153900 321.748810,232.488831 
	C322.733368,233.440094 323.955872,234.145111 325.068146,234.964203 
	C325.068146,234.964203 325.003357,234.999664 324.896790,235.272736 
	C325.128784,236.081604 325.467377,236.617432 325.805939,237.153259 
	C332.985291,248.388351 340.242950,259.574738 347.284332,270.895660 
	C348.875824,273.454407 349.714844,276.481201 350.656464,279.781769 
	C350.196960,280.484039 350.095612,280.742065 350.112549,281.283783 
	C350.116577,281.522522 350.151825,281.998779 349.825684,281.874176 
	C348.082245,279.932129 346.507599,278.214478 345.279175,276.277283 
	C342.374664,271.696991 340.107361,266.632019 336.736755,262.443542 
	C327.812988,251.354492 318.838348,240.257050 309.159668,229.835602 
	C291.816132,211.161026 272.632080,194.640137 248.540878,185.160080 
	C239.389999,181.559158 229.789001,178.899582 220.192001,176.681122 
	C204.768280,173.115753 189.608780,174.572983 175.194519,181.411957 
	C153.307190,191.796585 147.314102,212.989578 156.120499,233.373245 
	C158.548676,238.993591 162.666504,243.883972 165.962799,249.438538 
	C164.205444,251.466568 162.494339,253.165329 160.783218,254.864105 
z"/>
<path fill="#BA01E2" opacity="1.000000" stroke="none" 
	d="
M166.009033,249.109283 
	C162.666504,243.883972 158.548676,238.993591 156.120499,233.373245 
	C147.314102,212.989578 153.307190,191.796585 175.194519,181.411957 
	C189.608780,174.572983 204.768280,173.115753 220.192001,176.681122 
	C229.789001,178.899582 239.389999,181.559158 248.540878,185.160080 
	C272.632080,194.640137 291.816132,211.161026 309.159668,229.835602 
	C318.838348,240.257050 327.812988,251.354492 336.736755,262.443542 
	C340.107361,266.632019 342.374664,271.696991 345.279175,276.277283 
	C346.507599,278.214478 348.082245,279.932129 350.047852,281.973389 
	C351.009827,282.465118 351.423523,282.733063 351.837219,283.001007 
	C351.837219,283.001007 351.972870,283.437256 351.896118,284.007874 
	C352.161316,286.510681 352.503265,288.442871 352.845215,290.375061 
	C352.845215,290.375061 352.705109,290.683868 352.214874,290.533081 
	C351.235077,290.324768 350.476562,290.034485 350.295319,290.243896 
	C345.994446,295.212830 344.726013,291.626160 342.357239,288.048401 
	C335.425934,277.579254 328.286224,267.210907 320.590088,257.298492 
	C315.547638,250.803894 309.125275,245.399612 303.798737,239.102844 
	C291.555359,224.629211 276.444702,213.605927 260.669312,203.580399 
	C252.848373,198.610092 243.896530,195.376572 235.348007,191.602661 
	C216.802383,183.415253 197.953568,181.847443 178.944931,189.934982 
	C170.595398,193.487411 164.695480,199.458939 162.667694,208.640839 
	C160.327774,219.236160 163.471161,228.619324 169.002670,237.508728 
	C169.923004,238.987732 170.424911,240.727097 171.098511,242.590286 
	C170.983612,243.154404 170.937424,243.481033 170.670715,244.010895 
	C168.938461,245.841400 167.473740,247.475342 166.009033,249.109283 
z"/>
<path fill="#9C07C6" opacity="1.000000" stroke="none" 
	d="
M171.120178,242.346161 
	C170.424911,240.727097 169.923004,238.987732 169.002670,237.508728 
	C163.471161,228.619324 160.327774,219.236160 162.667694,208.640839 
	C164.695480,199.458939 170.595398,193.487411 178.944931,189.934982 
	C197.953568,181.847443 216.802383,183.415253 235.348007,191.602661 
	C243.896530,195.376572 252.848373,198.610092 260.669312,203.580399 
	C276.444702,213.605927 291.555359,224.629211 303.798737,239.102844 
	C309.125275,245.399612 315.547638,250.803894 320.590088,257.298492 
	C328.286224,267.210907 335.425934,277.579254 342.357239,288.048401 
	C344.726013,291.626160 345.994446,295.212830 350.295319,290.243896 
	C350.476562,290.034485 351.235077,290.324768 352.064209,290.610840 
	C349.205566,295.735962 343.659851,295.461121 338.524231,296.963898 
	C326.732574,277.503387 313.353271,259.497253 297.155121,243.807007 
	C272.005341,219.445847 243.983002,199.693588 208.584274,193.441238 
	C202.053467,192.287720 194.865692,192.781860 188.323532,194.151245 
	C168.301178,198.342316 161.713028,218.663620 175.017975,235.104584 
	C173.850586,237.935089 172.485382,240.140625 171.120178,242.346161 
z"/>
<path fill="#5F0A8F" opacity="1.000000" stroke="none" 
	d="
M209.162262,353.910706 
	C207.453476,352.995605 205.571564,352.354187 204.999405,351.110321 
	C203.786255,348.472961 202.618835,346.257446 199.261703,346.997406 
	C195.849380,347.749542 191.144821,344.546143 189.470108,350.753113 
	C187.982864,356.265167 183.091339,353.039551 179.061859,354.122894 
	C182.142944,346.523254 185.012665,339.485321 187.848068,332.433563 
	C189.184067,329.110901 190.170883,325.606781 191.875397,322.490936 
	C192.708237,320.968506 194.798447,319.274109 196.361649,319.232330 
	C198.243225,319.182007 201.263458,320.326721 201.901291,321.782135 
	C206.480392,332.230774 210.579529,342.889740 215.003403,353.911438 
	C212.827057,353.911438 211.204834,353.911438 209.162262,353.910706 
M198.177048,333.582550 
	C197.612137,333.227356 197.047226,332.872131 196.482330,332.516937 
	C195.600525,334.807617 194.718719,337.098267 193.728958,339.669373 
	C196.255936,339.669373 197.959320,339.669373 200.027161,339.669373 
	C199.490509,337.566223 199.059235,335.876099 198.177048,333.582550 
z"/>
<path fill="#CD0FED" opacity="1.000000" stroke="none" 
	d="
M230.019150,115.957062 
	C249.724808,112.728226 267.756042,115.956322 280.030365,132.943542 
	C287.535339,143.330185 293.267944,155.138855 298.763550,166.795868 
	C304.171661,178.267181 308.275665,190.353317 312.998108,202.596497 
	C313.044312,203.023331 312.957886,203.053879 312.611206,202.974457 
	C310.259399,198.680008 308.370209,194.405029 306.227600,190.261093 
	C299.543335,177.333221 293.376312,164.080475 285.807770,151.687134 
	C280.639740,143.224594 273.839722,135.628403 266.950287,128.428650 
	C264.944794,126.332832 261.367401,122.953323 256.995392,125.005028 
	C256.999420,125.001183 256.991180,125.008614 256.991272,124.641129 
	C254.302414,122.538078 251.613434,120.802505 248.536392,119.043396 
	C244.235443,118.296211 240.347107,115.420204 235.316971,119.695869 
	C236.307068,120.190796 237.138077,120.606194 238.136353,121.308769 
	C241.853806,126.707008 245.404007,131.818069 248.683685,136.853943 
	C247.959351,136.456757 247.505554,136.134750 246.919006,135.514801 
	C242.507477,131.483856 238.228668,127.750877 233.763123,123.738312 
	C231.704971,122.295265 229.833557,121.131798 227.754318,119.706543 
	C226.674561,119.321106 225.802643,119.197456 224.917725,119.101677 
	C224.904739,119.129547 224.843658,119.122467 225.060913,118.842918 
	C226.858475,117.694595 228.438812,116.825821 230.019150,115.957062 
z"/>
<path fill="#7E07AD" opacity="1.000000" stroke="none" 
	d="
M219.144379,219.962296 
	C213.567169,234.709152 208.768555,249.812973 202.213028,264.111267 
	C194.261490,281.454437 180.160919,291.615967 160.492661,293.992432 
	C155.842041,293.553497 151.601807,293.112518 147.518494,292.164429 
	C148.120087,291.481506 148.564743,291.305664 149.100876,291.287598 
	C149.477005,291.339569 149.761688,291.233826 150.346313,291.093750 
	C151.397354,290.786346 152.148422,290.513245 153.023682,290.595459 
	C160.048355,293.939789 165.829926,290.408417 171.161346,287.110138 
	C183.828125,279.273834 192.904984,267.807526 199.835159,254.920837 
	C204.660385,245.948318 208.104996,236.213669 211.871277,226.702652 
	C213.089981,223.625061 213.372070,220.176590 214.431915,216.908691 
	C216.235611,217.933853 217.689987,218.948074 219.144379,219.962296 
z"/>
<path fill="#5F0A8F" opacity="1.000000" stroke="none" 
	d="
M298.814392,321.022552 
	C298.855225,321.763580 298.896057,322.504578 298.545044,323.700195 
	C296.391815,326.048096 296.080139,327.742706 298.819824,329.019135 
	C298.956238,329.822479 299.092621,330.625824 299.286957,331.770416 
	C305.425964,327.684509 307.002686,316.659576 319.151733,320.040588 
	C314.681091,325.887024 310.891235,330.843201 306.910095,336.049500 
	C311.765869,341.722656 316.605621,347.377075 321.445404,353.031525 
	C316.976227,352.704376 312.375275,356.385956 308.758453,351.294128 
	C306.228668,347.732666 302.844238,344.778320 298.943939,340.588654 
	C298.943939,344.085205 298.943939,346.601166 298.568848,349.615906 
	C296.481232,351.319489 294.768707,352.524231 293.056183,353.728943 
	C292.599304,353.765411 292.142395,353.801880 291.321533,353.497467 
	C291.014038,352.758331 291.070557,352.360107 291.394653,351.650299 
	C291.787842,340.652100 291.913422,329.965485 292.039001,319.278809 
	C293.412079,319.218079 294.785187,319.157349 296.618225,319.452209 
	C297.656952,320.212708 298.235657,320.617645 298.814392,321.022552 
z"/>
<path fill="#5F0A8F" opacity="1.000000" stroke="none" 
	d="
M220.649994,321.650391 
	C225.926529,317.320221 234.195786,316.494385 238.511154,320.482239 
	C239.748962,321.626129 238.501450,325.459412 238.377502,328.444763 
	C233.532425,327.277649 229.927994,323.814606 225.473206,328.796661 
	C227.586548,330.333710 229.668854,331.823975 231.725006,333.349518 
	C234.570831,335.460968 237.784576,337.243591 240.138214,339.811066 
	C243.444138,343.417358 240.992432,351.488342 236.145676,353.325439 
	C228.846390,356.092102 221.819397,355.388367 215.340881,350.869659 
	C217.177856,343.628448 217.093292,343.874451 223.880066,346.207642 
	C226.284378,347.034210 229.211563,346.339844 231.900024,346.339844 
	C232.123627,345.566406 232.347229,344.792999 232.570831,344.019562 
	C230.604935,342.628113 228.797089,340.891602 226.645309,339.905945 
	C218.072754,335.979370 215.074585,329.934113 220.649994,321.650391 
z"/>
<path fill="#D408F6" opacity="1.000000" stroke="none" 
	d="
M269.798431,255.728516 
	C259.221130,259.471893 248.762833,263.615479 238.021988,266.808716 
	C231.570877,268.726624 224.679016,269.162048 217.586304,270.101501 
	C218.075623,266.589844 218.963867,263.240479 220.143646,260.201202 
	C225.035950,259.987946 229.869583,260.189056 234.191986,258.799744 
	C245.307800,255.226837 256.197021,250.948990 267.408142,247.220535 
	C268.359100,250.234970 269.078766,252.981750 269.798431,255.728516 
z"/>
<path fill="#5D0292" opacity="1.000000" stroke="none" 
	d="
M264.183685,340.977509 
	C261.261505,340.349976 258.351837,339.638489 255.401718,339.198334 
	C255.021851,339.141663 254.432053,340.491974 253.501907,341.698212 
	C252.688477,346.026276 252.312637,349.846649 251.936798,353.666992 
	C251.499588,353.718384 251.062378,353.769806 250.138153,353.604919 
	C249.109604,353.509583 248.568054,353.630615 248.026505,353.751648 
	C247.583939,353.797241 247.141373,353.842896 246.359528,353.441650 
	C246.027908,341.720276 246.035553,330.445801 246.043182,319.171295 
	C246.489456,319.155060 246.935715,319.138824 248.000443,319.405090 
	C249.745499,320.940430 251.357346,322.023987 251.869034,323.491211 
	C252.437088,325.120087 252.145599,327.112762 251.973145,328.922760 
	C251.594818,332.893341 253.379135,334.420563 257.216248,334.024414 
	C258.530670,333.888733 259.879059,333.906158 261.197601,334.019897 
	C264.741943,334.325714 265.946503,332.360504 265.986542,329.229492 
	C266.029022,325.908997 266.030792,322.588043 266.050354,319.267273 
	C267.747131,319.216766 269.443878,319.166290 271.578857,319.464966 
	C271.963074,320.207642 271.909027,320.601135 271.593872,321.316803 
	C271.220795,330.455994 271.211365,339.276794 270.885986,348.085938 
	C270.837311,349.404266 269.306885,350.667877 268.461914,351.956787 
	C267.640625,350.644318 266.569031,349.422180 266.055389,347.998688 
	C265.236298,345.728729 264.788483,343.324799 264.183685,340.977509 
z"/>
<path fill="#DE8EF0" opacity="1.000000" stroke="none" 
	d="
M325.048035,234.565521 
	C323.955872,234.145111 322.733368,233.440094 321.748810,232.488831 
	C314.157288,225.153900 306.597198,217.786163 299.066315,210.388962 
	C297.794983,209.140213 296.710876,207.700836 295.281372,205.783417 
	C294.697784,203.479889 294.373138,201.742447 294.401428,200.013672 
	C296.839783,201.145248 298.925232,202.268188 301.208435,203.620728 
	C303.586731,205.409943 305.767212,206.969543 308.132324,208.780594 
	C311.316864,211.691742 314.316803,214.351456 317.573730,217.218719 
	C319.177002,219.647141 320.523224,221.868011 321.869446,224.088898 
	C322.922272,227.448212 323.975098,230.807541 325.048035,234.565521 
z"/>
<path fill="#BB04E2" opacity="1.000000" stroke="none" 
	d="
M334.759766,188.838348 
	C337.596832,185.637024 340.433899,182.435699 343.655701,179.444885 
	C345.005096,180.426575 345.969696,181.197723 346.638397,182.130249 
	C344.699768,184.554047 343.183411,186.922363 341.391846,189.060059 
	C334.625763,197.133453 327.770233,205.131927 320.668518,213.006622 
	C319.924225,211.914047 319.459595,210.973297 319.013733,209.665741 
	C320.005554,207.178238 320.978577,205.057526 321.978149,202.960327 
	C322.004700,202.983810 321.936646,202.964386 322.209808,202.919403 
	C322.645172,202.563217 322.807373,202.251984 322.983948,201.968872 
	C322.998322,201.996994 322.941620,201.969177 323.215637,201.925034 
	C323.651611,201.566879 323.813538,201.252869 323.986694,200.967834 
	C323.997925,200.996796 323.939392,200.975891 324.211761,200.925797 
	C324.647827,200.563492 324.811554,200.251266 324.981262,199.970963 
	C324.987244,200.002869 324.941925,199.956299 325.312317,200.011902 
	C328.982025,196.902222 332.298859,193.754425 335.525909,190.517105 
	C335.678436,190.364105 335.033386,189.416107 334.759766,188.838348 
z"/>
<path fill="#EFC6F6" opacity="1.000000" stroke="none" 
	d="
M270.200287,255.847275 
	C269.078766,252.981750 268.359100,250.234970 267.378113,246.898254 
	C266.739044,245.560028 266.361298,244.811722 265.977020,243.758789 
	C265.653442,242.968964 265.336426,242.483734 264.973114,241.720947 
	C264.651428,241.232178 264.376038,241.020966 264.151581,240.805298 
	C264.202515,240.800858 264.257019,240.714340 264.219055,240.398300 
	C263.772034,239.123428 263.362915,238.164597 262.953827,237.205765 
	C264.433655,236.914825 266.556641,235.850266 267.288635,236.458847 
	C271.939758,240.325760 276.316223,244.528320 280.680145,248.727371 
	C281.131134,249.161316 280.904480,250.299545 280.990845,251.484009 
	C277.526978,253.226700 274.064575,254.596359 270.200287,255.847275 
z"/>
<path fill="#CD0FED" opacity="1.000000" stroke="none" 
	d="
M320.948151,213.158447 
	C327.770233,205.131927 334.625763,197.133453 341.391846,189.060059 
	C343.183411,186.922363 344.699768,184.554047 346.780334,182.359146 
	C347.509369,182.623184 347.800507,182.819687 348.091644,183.016205 
	C342.467224,191.747223 336.963379,200.559647 331.154297,209.166031 
	C329.059967,212.268860 326.232574,214.876892 323.126892,217.670135 
	C321.992157,216.139191 321.470154,214.648804 320.948151,213.158447 
z"/>
<path fill="#5D0292" opacity="1.000000" stroke="none" 
	d="
M281.994019,319.178040 
	C282.430969,319.168854 282.867950,319.159637 283.639343,319.664001 
	C283.983765,329.479950 283.912231,338.783569 284.048431,348.084167 
	C284.095367,351.289276 282.986237,352.659302 279.002441,352.025848 
	C279.002441,345.907867 279.106720,339.811798 278.966736,333.721405 
	C278.869141,329.473938 278.436707,325.234192 278.090454,320.696838 
	C278.024719,320.002289 278.022430,319.601929 278.020111,319.201538 
	C278.766907,319.161987 279.513733,319.122467 280.728882,319.260681 
	C281.197266,319.438477 281.647156,319.514374 281.647156,319.514374 
	C281.647156,319.514374 281.994019,319.178040 281.994019,319.178040 
z"/>
<path fill="#BF1FD9" opacity="1.000000" stroke="none" 
	d="
M239.996017,374.037170 
	C239.988022,371.925568 239.988022,370.286591 239.988022,368.267578 
	C243.809280,368.134399 247.864517,366.583618 249.900452,370.705078 
	C251.020691,372.972809 251.700134,377.438354 250.498260,378.455688 
	C248.090927,380.493408 244.254364,380.842682 240.004013,382.212555 
	C240.004013,378.692688 240.004013,376.601227 239.996017,374.037170 
z"/>
<path fill="#BF1FD9" opacity="1.000000" stroke="none" 
	d="
M328.699921,379.759644 
	C321.512054,382.988251 316.310181,381.007751 316.160370,374.995209 
	C316.108551,372.916443 317.437714,369.606689 319.001953,368.962799 
	C321.389343,367.980072 325.028534,367.942627 327.194458,369.168182 
	C328.988220,370.183197 329.670929,373.536102 330.333008,375.991486 
	C330.595490,376.965027 329.473511,378.311829 328.699921,379.759644 
M324.889282,371.459839 
	C323.320068,372.157593 320.575623,372.673126 320.433167,373.592072 
	C320.160004,375.353699 321.364471,377.344452 322.345856,380.490265 
	C324.733765,376.904297 329.441681,375.972870 324.889282,371.459839 
z"/>
<path fill="#EFC6F6" opacity="1.000000" stroke="none" 
	d="
M320.668518,213.006622 
	C321.470154,214.648804 321.992157,216.139191 322.818329,217.785629 
	C322.756348,219.720932 322.390137,221.500183 321.946716,223.684174 
	C320.523224,221.868011 319.177002,219.647141 317.465881,216.840515 
	C315.719971,211.854462 314.338928,207.454178 312.957886,203.053879 
	C312.957886,203.053879 313.044312,203.023331 313.037720,202.977982 
	C316.552704,200.952454 320.063019,198.951736 323.604431,197.007645 
	C324.409210,196.565887 325.321625,196.320312 326.580200,196.332916 
	C326.297913,197.773041 325.619934,198.864670 324.941956,199.956299 
	C324.941925,199.956299 324.987244,200.002869 324.704163,200.016190 
	C324.260529,200.344971 324.099976,200.660431 323.939392,200.975891 
	C323.939392,200.975891 323.997925,200.996796 323.701996,201.004318 
	C323.251251,201.330963 323.096436,201.650070 322.941620,201.969177 
	C322.941620,201.969177 322.998322,201.996994 322.684082,201.982300 
	C322.225403,202.299850 322.081024,202.632111 321.936646,202.964386 
	C321.936646,202.964386 322.004700,202.983810 321.628876,202.954834 
	C319.342163,204.926758 314.470154,205.986755 318.994934,210.032547 
	C319.459595,210.973297 319.924225,211.914047 320.668518,213.006622 
z"/>
<path fill="#BF1FD9" opacity="1.000000" stroke="none" 
	d="
M367.026428,378.442047 
	C367.027771,374.891266 367.027771,371.775452 367.027771,368.084015 
	C369.408478,368.084015 371.628204,367.635254 373.516113,368.233490 
	C374.895996,368.670746 376.843048,370.538025 376.783508,371.676117 
	C376.623749,374.729248 375.521912,377.733124 374.702667,381.136993 
	C373.421844,379.759216 372.359192,378.616150 371.602905,377.802582 
	C370.776154,379.066956 369.887390,380.426178 368.998657,381.785370 
	C368.340790,380.815918 367.682953,379.846497 367.026428,378.442047 
z"/>
<path fill="#F095FC" opacity="1.000000" stroke="none" 
	d="
M165.962799,249.438538 
	C167.473740,247.475342 168.938461,245.841400 170.698334,244.411697 
	C172.069077,245.503174 173.144669,246.390442 174.271759,247.641937 
	C173.868484,249.630600 173.413681,251.255005 172.728714,253.078461 
	C172.321213,253.847824 172.143890,254.418121 171.984055,254.993927 
	C172.001526,254.999420 171.976883,254.972046 171.732071,255.143616 
	C171.290421,255.870636 171.093582,256.426086 170.650391,257.178284 
	C169.911652,258.523560 169.419281,259.672028 168.627777,260.906677 
	C167.937561,261.134583 167.546494,261.276337 167.155426,261.418091 
	C165.112671,259.467468 163.069916,257.516815 160.905197,255.215149 
	C162.494339,253.165329 164.205444,251.466568 165.962799,249.438538 
z"/>
<path fill="#F095FC" opacity="1.000000" stroke="none" 
	d="
M219.852112,259.891083 
	C218.963867,263.240479 218.075623,266.589844 217.258713,270.296448 
	C215.872757,270.770874 214.415451,270.888123 212.523026,271.025299 
	C210.522598,270.918152 208.957291,270.791077 206.415955,270.584717 
	C207.925644,267.480530 209.155365,264.951996 211.102631,262.209747 
	C213.742386,261.909210 215.664581,261.822388 216.784958,261.771759 
	C217.994644,258.344147 218.932388,255.687119 219.906647,253.359970 
	C219.981888,254.130585 220.020599,254.571335 220.071274,255.419388 
	C220.006195,257.181488 219.929153,258.536285 219.852112,259.891083 
z"/>
<path fill="#BF1FD9" opacity="1.000000" stroke="none" 
	d="
M159.985825,373.779999 
	C159.986115,371.704376 159.986115,370.065582 159.986115,368.382874 
	C163.956955,368.904419 164.929321,370.831573 163.799316,375.402802 
	C162.937134,378.890625 161.966843,382.587067 157.136444,381.514282 
	C152.748795,380.539795 151.516800,374.914398 154.457932,367.582733 
	C155.121368,369.881989 155.546738,371.406555 156.002457,372.922028 
	C156.505051,374.593445 157.035492,376.256439 158.025513,379.439941 
	C158.997925,376.848633 159.491730,375.532715 159.985825,373.779999 
z"/>
<path fill="#BF1FD9" opacity="1.000000" stroke="none" 
	d="
M336.998718,371.190552 
	C337.305237,365.544891 341.225433,368.430481 343.358368,368.297974 
	C344.481323,368.228210 347.016693,371.200439 346.731995,371.867188 
	C345.886566,373.846985 343.958405,375.364502 342.453522,377.062714 
	C342.137054,376.789429 341.820618,376.516144 341.504181,376.242859 
	C340.945953,378.141205 340.387756,380.039551 339.612091,382.677399 
	C335.506470,379.050964 337.598083,375.055145 336.998718,371.190552 
z"/>
<path fill="#BF1FD9" opacity="1.000000" stroke="none" 
	d="
M356.046448,380.999512 
	C354.643005,380.991150 353.665771,380.991150 352.520294,380.991150 
	C352.520294,376.672058 352.520294,372.592987 352.520294,367.984009 
	C354.682709,367.984009 357.109009,367.984009 359.280426,367.984009 
	C359.531616,372.451996 359.756012,376.443115 360.000702,380.795349 
	C359.295258,380.837830 357.883972,380.922852 356.046448,380.999512 
z"/>
<path fill="#BF1FD9" opacity="1.000000" stroke="none" 
	d="
M223.421631,369.928101 
	C223.933640,375.713043 221.643661,378.839264 218.480179,377.520020 
	C217.889252,379.026611 217.294540,380.542816 216.592117,382.333618 
	C213.886429,379.609528 212.633362,371.177948 214.907379,370.006683 
	C217.121445,368.866272 220.352997,369.701324 223.421631,369.928101 
M217.350952,372.468506 
	C218.084152,371.885651 218.817352,371.302795 219.550537,370.719940 
	C219.202179,370.426605 218.853806,370.133240 218.505447,369.839905 
	C218.025833,370.534424 217.546219,371.228943 217.350952,372.468506 
z"/>
<path fill="#BF1FD9" opacity="1.000000" stroke="none" 
	d="
M289.000946,375.733063 
	C289.002930,373.039734 289.002930,370.774902 289.002930,368.709442 
	C291.197388,368.709442 293.949310,368.709442 296.701233,368.709442 
	C296.752502,369.153198 296.803802,369.596985 296.855103,370.040741 
	C295.402588,370.485443 293.950073,370.930145 293.813232,370.972015 
	C294.474640,374.185852 295.505981,377.317780 295.443970,380.427887 
	C295.431061,381.076355 291.376007,381.644257 288.678833,382.388611 
	C288.820618,379.630524 288.909790,377.896027 289.000946,375.733063 
z"/>
<path fill="#BF1FD9" opacity="1.000000" stroke="none" 
	d="
M265.044556,374.887207 
	C264.843842,376.010895 264.251343,376.944031 264.503571,377.478790 
	C265.375885,379.328217 267.391632,381.361725 263.374359,381.713501 
	C260.523804,381.963135 257.384277,382.343048 257.936768,377.661530 
	C258.204987,375.388794 257.722870,373.009430 258.131409,370.779297 
	C258.323151,369.732635 259.818268,368.924744 260.722717,368.008667 
	C261.510742,368.937286 262.398468,369.800568 263.060638,370.811615 
	C263.824341,371.977722 264.388947,373.274170 265.044556,374.887207 
z"/>
<path fill="#9C07C6" opacity="1.000000" stroke="none" 
	d="
M348.373962,182.850342 
	C347.800507,182.819687 347.509369,182.623184 347.076233,182.197769 
	C345.969696,181.197723 345.005096,180.426575 343.972687,179.333374 
	C343.963043,178.836777 344.021149,178.662247 344.384796,177.969391 
	C346.753510,174.244019 348.816711,171.037018 350.879944,167.830017 
	C350.879944,167.830017 350.921417,167.918701 351.211395,167.936371 
	C352.309784,166.643600 353.118164,165.333145 353.926575,164.022690 
	C354.897766,162.057053 355.868958,160.091431 356.840149,158.125793 
	C357.468628,158.370148 358.097076,158.614517 358.725525,158.858871 
	C357.419098,162.142776 356.328339,165.535095 354.746979,168.680801 
	C353.090576,171.975815 350.803619,174.952499 349.123260,178.237625 
	C348.490051,179.475647 348.784668,181.188248 348.373962,182.850342 
z"/>
<path fill="#BF1FD9" opacity="1.000000" stroke="none" 
	d="
M199.970367,377.798798 
	C199.974182,375.340302 199.650421,373.266937 200.098083,371.376251 
	C200.395004,370.122162 201.796249,369.129486 202.703156,368.019806 
	C203.618301,369.055603 204.924164,369.950531 205.359833,371.159149 
	C206.068176,373.124176 206.207123,375.294495 206.586395,377.378143 
	C206.175522,377.490356 205.764648,377.602539 205.353790,377.714752 
	C206.231491,378.495544 207.109177,379.276337 207.986877,380.057129 
	C205.046799,379.942688 201.296814,383.552399 199.970367,377.798798 
z"/>
<path fill="#53097F" opacity="1.000000" stroke="none" 
	d="
M265.670471,319.365662 
	C266.030792,322.588043 266.029022,325.908997 265.986542,329.229492 
	C265.946503,332.360504 264.741943,334.325714 261.197601,334.019897 
	C259.879059,333.906158 258.530670,333.888733 257.216248,334.024414 
	C253.379135,334.420563 251.594818,332.893341 251.973145,328.922760 
	C252.145599,327.112762 252.437088,325.120087 251.869034,323.491211 
	C251.357346,322.023987 249.745499,320.940430 248.332794,319.451233 
	C252.631744,318.182312 254.533554,319.975433 254.042648,324.659576 
	C253.807739,326.901154 254.002213,329.187744 254.002213,331.731506 
	C257.438751,331.731506 260.333099,331.731506 263.225525,331.731506 
	C263.924469,327.579468 264.607513,323.521759 265.670471,319.365662 
z"/>
<path fill="#53097F" opacity="1.000000" stroke="none" 
	d="
M278.153839,320.990997 
	C278.436707,325.234192 278.869141,329.473938 278.966736,333.721405 
	C279.106720,339.811798 279.002441,345.907867 279.002441,352.025848 
	C282.986237,352.659302 284.095367,351.289276 284.048431,348.084167 
	C283.912231,338.783569 283.983765,329.479950 283.960754,319.732208 
	C284.136169,319.246033 284.324585,319.205139 284.826904,319.647217 
	C285.122986,331.333984 285.105164,342.537811 285.087341,353.741669 
	C283.012512,353.793243 280.937653,353.844818 278.418457,353.392212 
	C278.034027,342.255707 278.093933,331.623352 278.153839,320.990997 
z"/>
<path fill="#BF1FD9" opacity="1.000000" stroke="none" 
	d="
M192.760452,370.921631 
	C191.867096,373.687195 191.517944,376.436890 190.890823,379.121613 
	C190.665039,380.088257 189.770981,380.898834 189.181885,381.780609 
	C188.476227,381.020569 187.244095,380.317719 187.154266,379.490814 
	C186.720856,375.500397 188.307220,370.935028 183.534424,368.085052 
	C186.563644,368.085052 189.596909,368.019836 192.614639,368.206055 
	C192.862106,368.221375 193.003937,369.948364 192.760452,370.921631 
z"/>
<path fill="#53097F" opacity="1.000000" stroke="none" 
	d="
M264.115417,341.435791 
	C264.788483,343.324799 265.236298,345.728729 266.055389,347.998688 
	C266.569031,349.422180 267.640625,350.644318 268.461914,351.956787 
	C269.306885,350.667877 270.837311,349.404266 270.885986,348.085938 
	C271.211365,339.276794 271.220795,330.455994 271.647705,321.783813 
	C271.978516,332.549438 271.994324,343.170227 272.010132,353.790985 
	C263.979706,354.232941 263.977295,354.232941 263.994873,346.359253 
	C263.998199,344.870850 264.029022,343.382477 264.115417,341.435791 
z"/>
<path fill="#BF1FD9" opacity="1.000000" stroke="none" 
	d="
M125.986443,376.644714 
	C126.000511,374.046539 126.007599,371.894257 126.038307,369.742340 
	C126.042862,369.423035 126.158806,369.105316 126.300995,368.402191 
	C128.404968,368.402191 130.581635,368.402191 132.758301,368.402191 
	C132.918457,368.729370 133.078613,369.056519 133.238770,369.383698 
	C131.894928,370.191925 130.551102,371.000153 128.895813,371.995697 
	C130.316208,372.870117 131.681717,373.710724 133.115433,374.593323 
	C131.095490,376.975128 129.303085,379.088654 126.949348,381.864044 
	C126.596542,380.113892 126.291824,378.602295 125.986443,376.644714 
z"/>
<path fill="#BF1FD9" opacity="1.000000" stroke="none" 
	d="
M175.391205,380.962921 
	C171.593414,382.132751 172.160309,379.609619 171.983475,377.624969 
	C171.713821,374.598907 171.359131,371.580383 171.027267,368.432556 
	C176.388153,367.355713 176.524338,367.487946 176.046036,373.247742 
	C175.841125,375.715271 175.811447,378.197418 175.391205,380.962921 
z"/>
<path fill="#BF1FD9" opacity="1.000000" stroke="none" 
	d="
M306.022369,370.147644 
	C306.829468,373.775238 307.625122,376.968292 308.420746,380.161377 
	C308.875214,380.063629 309.329681,379.965851 309.784149,379.868103 
	C309.659515,380.136505 309.581299,380.603180 309.403503,380.644806 
	C301.776855,382.431885 301.604462,382.220825 302.946808,373.938293 
	C303.181458,372.490295 302.648254,370.829132 303.154846,369.534485 
	C303.936768,367.536194 305.207367,367.183136 306.022369,370.147644 
z"/>
<path fill="#BF1FD9" opacity="1.000000" stroke="none" 
	d="
M275.078583,373.981689 
	C276.066803,372.605560 276.982758,371.547699 278.031677,370.644196 
	C279.302734,369.549347 280.686157,368.584961 282.020935,367.564117 
	C282.317993,367.946777 282.615021,368.329468 282.912048,368.712158 
	C281.112366,373.155121 279.312714,377.598083 277.513031,382.041077 
	C277.074402,382.035095 276.635803,382.029144 276.197174,382.023193 
	C275.819855,379.471588 275.442535,376.920013 275.078583,373.981689 
z"/>
<path fill="#CD0FED" opacity="1.000000" stroke="none" 
	d="
M167.061340,261.738098 
	C167.546494,261.276337 167.937561,261.134583 168.625092,261.289673 
	C166.432022,266.421356 164.199066,271.414825 161.347626,276.025848 
	C159.862259,278.427826 157.286469,280.155548 155.138489,282.129547 
	C155.073776,282.071289 154.942139,281.957275 154.942139,281.957275 
	C157.847168,277.254517 160.770279,272.562744 163.648392,267.843567 
	C164.805557,265.946106 165.863922,263.988403 167.061340,261.738098 
z"/>
<path fill="#7E07AD" opacity="1.000000" stroke="none" 
	d="
M325.312347,200.011917 
	C325.619934,198.864670 326.297913,197.773041 326.958954,196.347778 
	C329.317596,193.644409 331.693176,191.274643 334.414246,188.871613 
	C335.033386,189.416107 335.678436,190.364105 335.525909,190.517105 
	C332.298859,193.754425 328.982025,196.902222 325.312347,200.011917 
z"/>
<path fill="#F095FC" opacity="1.000000" stroke="none" 
	d="
M227.962143,119.968330 
	C229.833557,121.131798 231.704971,122.295265 233.436005,123.785202 
	C232.795715,124.491417 232.295822,124.871170 231.491821,125.169479 
	C230.803955,124.912926 230.420181,124.737831 229.814209,124.337769 
	C228.051331,123.399284 226.510651,122.685768 224.969955,121.972252 
	C222.955994,121.599045 220.942017,121.225845 218.535065,120.896881 
	C218.556671,120.355042 218.971252,119.768959 219.849945,119.346939 
	C221.823929,119.381493 223.333801,119.251984 224.843658,119.122467 
	C224.843658,119.122467 224.904739,119.129547 225.130585,119.356018 
	C226.224991,119.711105 227.093567,119.839714 227.962143,119.968330 
z"/>
<path fill="#BF1FD9" opacity="1.000000" stroke="none" 
	d="
M144.044403,378.885376 
	C145.011002,379.130310 145.977615,379.375275 146.944214,379.620209 
	C146.917450,380.059692 146.890686,380.499176 146.863907,380.938660 
	C144.879852,380.938660 142.895782,380.938660 140.470734,380.420349 
	C140.029724,376.051758 140.029724,372.201447 140.029724,368.351166 
	C140.704971,368.381531 141.380219,368.411926 142.055466,368.442291 
	C142.055466,370.876801 141.852875,373.335999 142.145477,375.734802 
	C142.280975,376.845673 143.381424,377.838837 144.044403,378.885376 
z"/>
<path fill="#53097F" opacity="1.000000" stroke="none" 
	d="
M245.660614,319.348877 
	C246.035553,330.445801 246.027908,341.720276 246.025681,353.455200 
	C245.692642,353.673828 245.057495,353.431030 245.058319,353.190399 
	C245.096802,341.968964 245.190613,330.747742 245.660614,319.348877 
z"/>
<path fill="#BC85D8" opacity="1.000000" stroke="none" 
	d="
M272.415894,353.647400 
	C271.994324,343.170227 271.978516,332.549438 271.908844,321.461670 
	C271.909027,320.601135 271.963074,320.207642 272.001465,319.516541 
	C272.323700,319.842560 272.955719,320.466125 272.955811,321.089783 
	C272.957214,331.894440 272.880951,342.699127 272.415894,353.647400 
z"/>
<path fill="#BC85D8" opacity="1.000000" stroke="none" 
	d="
M278.090454,320.696838 
	C278.093933,331.623352 278.034027,342.255707 277.976227,353.340332 
	C277.654297,353.153564 277.048187,352.514435 277.048279,351.875397 
	C277.049988,341.068390 277.127045,330.261383 277.603760,319.327942 
	C278.022430,319.601929 278.024719,320.002289 278.090454,320.696838 
z"/>
<path fill="#BC85D8" opacity="1.000000" stroke="none" 
	d="
M291.127075,351.961853 
	C291.070557,352.360107 291.014038,352.758331 290.979126,353.457336 
	C290.673492,353.130341 290.061584,352.502716 290.061371,351.874908 
	C290.057831,341.069580 290.129700,330.264221 290.580994,319.779083 
	C291.026978,330.720123 291.077026,341.341003 291.127075,351.961853 
z"/>
<path fill="#BC85D8" opacity="1.000000" stroke="none" 
	d="
M285.433868,353.523560 
	C285.105164,342.537811 285.122986,331.333984 285.114441,319.678436 
	C285.362793,322.093109 285.849609,324.957825 285.872437,327.826172 
	C285.939941,336.318481 285.824341,344.812286 285.433868,353.523560 
z"/>
<path fill="#53097F" opacity="1.000000" stroke="none" 
	d="
M291.394653,351.650299 
	C291.077026,341.341003 291.026978,330.720123 290.989807,319.646515 
	C291.177856,319.177490 291.353027,319.161194 291.783569,319.211853 
	C291.913422,329.965485 291.787842,340.652100 291.394653,351.650299 
z"/>
<path fill="#F095FC" opacity="1.000000" stroke="none" 
	d="
M144.025024,378.468750 
	C143.381424,377.838837 142.280975,376.845673 142.145477,375.734802 
	C141.852875,373.335999 142.055466,370.876801 142.055466,368.442291 
	C141.380219,368.411926 140.704971,368.381531 140.029724,368.351166 
	C140.029724,372.201447 140.029724,376.051758 140.050140,380.351196 
	C139.540802,376.483887 139.011078,372.167419 138.432327,367.451447 
	C140.141312,367.239899 141.308289,367.095459 142.432419,366.956329 
	C142.981369,370.828003 143.493500,374.440063 144.025024,378.468750 
z"/>
<path fill="#53097F" opacity="1.000000" stroke="none" 
	d="
M252.343307,353.705261 
	C252.312637,349.846649 252.688477,346.026276 253.436249,342.091309 
	C253.455383,345.898987 253.102600,349.821259 252.343307,353.705261 
z"/>
<path fill="#EFC6F6" opacity="1.000000" stroke="none" 
	d="
M350.522217,167.710327 
	C348.816711,171.037018 346.753510,174.244019 344.509827,177.723419 
	C346.274414,174.527420 348.219452,171.059036 350.522217,167.710327 
z"/>
<path fill="#BF1FD9" opacity="1.000000" stroke="none" 
	d="
M225.060913,118.842926 
	C223.333801,119.251984 221.823929,119.381493 220.117371,119.253326 
	C223.183838,117.767555 226.446976,116.539474 229.864639,115.634224 
	C228.438812,116.825821 226.858475,117.694595 225.060913,118.842926 
z"/>
<path fill="#CD0FED" opacity="1.000000" stroke="none" 
	d="
M149.009415,291.129852 
	C148.564743,291.305664 148.120087,291.481506 147.459991,291.766235 
	C148.615112,289.992004 149.985687,288.108826 151.695786,286.130249 
	C152.035294,286.034882 152.062210,286.061646 152.042908,286.389313 
	C152.021576,287.154633 152.019562,287.592285 152.122284,288.240204 
	C152.418549,288.712524 152.668137,288.895264 153.239258,289.003052 
	C153.678375,289.008484 153.854034,289.009613 153.888412,289.253113 
	C153.464584,289.743683 153.182037,289.991913 152.899490,290.240173 
	C152.148422,290.513245 151.397354,290.786346 150.086853,291.060486 
	C149.354752,291.084320 149.182083,291.107086 149.009415,291.129852 
z"/>
<path fill="#53097F" opacity="1.000000" stroke="none" 
	d="
M293.467468,353.814667 
	C294.768707,352.524231 296.481232,351.319489 298.512573,350.047913 
	C299.856720,354.669342 296.655151,354.016174 293.467468,353.814667 
z"/>
<path fill="#9C07C6" opacity="1.000000" stroke="none" 
	d="
M353.119873,290.192322 
	C352.503265,288.442871 352.161316,286.510681 351.964905,284.225677 
	C352.538452,285.918457 352.966492,287.964020 353.119873,290.192322 
z"/>
<path fill="#53097F" opacity="1.000000" stroke="none" 
	d="
M298.886780,328.602966 
	C296.080139,327.742706 296.391815,326.048096 298.493164,324.068787 
	C298.873352,325.384125 298.913544,326.785431 298.886780,328.602966 
z"/>
<path fill="#CD0FED" opacity="1.000000" stroke="none" 
	d="
M152.021820,286.021545 
	C152.788773,284.757538 153.569214,283.506897 154.645889,282.106750 
	C154.942139,281.957275 155.073776,282.071289 155.076111,282.505493 
	C155.054184,283.963196 155.029907,284.986725 155.003235,286.005127 
	C155.000854,286.000000 155.009079,286.005188 154.749512,286.002869 
	C154.316910,286.002686 154.143875,286.004822 153.652466,286.008026 
	C152.910126,286.026611 152.486176,286.044128 152.062210,286.061646 
	C152.062210,286.061646 152.035294,286.034882 152.021820,286.021545 
z"/>
<path fill="#EFC6F6" opacity="1.000000" stroke="none" 
	d="
M353.559448,164.028259 
	C353.118164,165.333145 352.309784,166.643600 351.163269,167.927216 
	C351.614258,166.611542 352.403290,165.322693 353.559448,164.028259 
z"/>
<path fill="#53097F" opacity="1.000000" stroke="none" 
	d="
M298.851685,320.692474 
	C298.235657,320.617645 297.656952,320.212708 297.025330,319.526978 
	C297.611267,319.618256 298.250153,319.990326 298.851685,320.692474 
z"/>
<path fill="#9C07C6" opacity="1.000000" stroke="none" 
	d="
M351.916107,282.693115 
	C351.423523,282.733063 351.009827,282.465118 350.373962,282.097961 
	C350.151825,281.998779 350.116577,281.522522 350.359772,281.250244 
	C350.768982,280.959442 350.934998,280.940948 351.101013,280.922455 
	C351.399017,281.410034 351.696991,281.897644 351.916107,282.693115 
z"/>
<path fill="#53097F" opacity="1.000000" stroke="none" 
	d="
M248.347015,353.831665 
	C248.568054,353.630615 249.109604,353.509583 249.808990,353.564606 
	C249.533722,353.797668 249.100632,353.854675 248.347015,353.831665 
z"/>
<path fill="#DE8EF0" opacity="1.000000" stroke="none" 
	d="
M325.905457,236.814529 
	C325.467377,236.617432 325.128784,236.081604 324.920898,235.244781 
	C325.369354,235.454437 325.687134,235.965118 325.905457,236.814529 
z"/>
<path fill="#53097F" opacity="1.000000" stroke="none" 
	d="
M281.747498,319.121094 
	C281.994019,319.178040 281.647156,319.514374 281.647156,319.514374 
	C281.647156,319.514374 281.197266,319.438477 281.101318,319.302277 
	C281.170563,319.132111 281.335785,319.098114 281.747498,319.121094 
z"/>
<path fill="#BA01E2" opacity="1.000000" stroke="none" 
	d="
M351.036621,280.698792 
	C350.934998,280.940948 350.768982,280.959442 350.355774,281.011475 
	C350.095612,280.742065 350.196960,280.484039 350.594849,280.161743 
	C350.777008,280.052490 350.972260,280.475128 351.036621,280.698792 
z"/>
<path fill="#000000" opacity="1.000000" stroke="none" 
	d="
M251.866974,235.066132 
	C241.541855,236.960358 231.646713,238.903000 220.435059,241.104095 
	C222.436310,229.970383 227.201462,221.617310 230.944473,212.499207 
	C241.890778,217.723251 251.244858,223.753555 259.838196,232.338486 
	C256.816742,233.450729 254.556854,234.282639 251.866974,235.066132 
z"/>
<path fill="#D408F6" opacity="1.000000" stroke="none" 
	d="
M155.005615,286.010223 
	C155.029907,284.986725 155.054184,283.963196 155.140839,282.563751 
	C157.286469,280.155548 159.862259,278.427826 161.347626,276.025848 
	C164.199066,271.414825 166.432022,266.421356 168.924225,261.203522 
	C169.419281,259.672028 169.911652,258.523560 170.918732,257.026764 
	C171.614594,256.109650 171.795731,255.540848 171.976883,254.972046 
	C171.976883,254.972046 172.001526,254.999420 172.246613,254.824402 
	C172.647430,254.059387 172.803162,253.469391 172.958893,252.879410 
	C173.413681,251.255005 173.868484,249.630600 174.264130,247.601685 
	C174.204987,247.197189 174.153717,247.133484 174.486908,247.082092 
	C175.270813,246.038788 175.721527,245.046890 176.426086,243.832214 
	C177.514023,241.494659 178.348068,239.379898 179.182129,237.265137 
	C179.182129,237.265137 179.226532,237.204971 179.471420,237.045563 
	C179.782257,236.560577 179.848206,236.234970 179.914154,235.909378 
	C180.660919,232.907379 181.407669,229.905365 182.503830,226.263489 
	C184.964249,219.785858 187.075272,213.948120 189.186295,208.110382 
	C189.186295,208.110382 189.585342,207.980072 190.190338,207.844925 
	C192.864410,207.853012 194.933456,207.996246 196.988373,208.515549 
	C194.191208,216.175674 191.765564,223.622284 188.543167,230.706482 
	C183.443832,241.916992 178.275497,253.145706 172.252304,263.870209 
	C167.678040,272.014893 163.189255,280.539398 155.005615,286.010223 
z"/>
<path fill="#EFC6F6" opacity="1.000000" stroke="none" 
	d="
M197.002518,208.139465 
	C194.933456,207.996246 192.864410,207.853012 190.348694,207.707169 
	C190.056335,203.530746 191.827728,201.174210 196.373520,201.999374 
	C203.947449,203.374176 211.545212,204.637589 219.077225,206.214172 
	C222.384430,206.906403 223.788467,208.837616 221.897003,212.405914 
	C220.761093,214.548843 220.360825,217.081711 219.387146,219.700806 
	C217.689987,218.948074 216.235611,217.933853 214.284592,216.601013 
	C211.853455,214.932709 209.918945,213.583023 207.765732,212.149246 
	C207.547028,212.065140 207.082794,212.000977 206.933563,211.716034 
	C206.201340,211.180481 205.618332,210.929855 204.787827,210.437531 
	C202.027725,209.510376 199.515121,208.824921 197.002518,208.139465 
z"/>
<path fill="#7E07AD" opacity="1.000000" stroke="none" 
	d="
M262.565216,237.136597 
	C263.362915,238.164597 263.772034,239.123428 263.799408,240.479004 
	C259.668304,241.888947 255.938782,242.984360 252.165237,243.897781 
	C244.865234,245.664825 237.500259,247.178070 230.244263,249.105453 
	C227.024200,249.960770 222.779861,248.701538 220.921249,252.665833 
	C220.830841,251.903091 220.780304,251.467545 220.813324,250.633667 
	C220.930893,249.150284 220.964920,248.065216 220.998932,246.980133 
	C228.517776,245.646408 236.112732,244.634644 243.532196,242.880554 
	C249.851883,241.386475 255.969559,239.037964 262.565216,237.136597 
z"/>
<path fill="#000000" opacity="1.000000" stroke="none" 
	d="
M189.104599,207.729462 
	C187.075272,213.948120 184.964249,219.785858 182.584534,225.861053 
	C177.995300,223.858200 177.012863,219.739838 178.231873,215.838684 
	C179.054062,213.207520 182.043839,211.235443 184.123810,209.024841 
	C184.908203,208.191177 185.767410,207.312744 186.774155,206.849014 
	C187.329239,206.593292 188.260971,207.155243 189.104599,207.729462 
z"/>
<path fill="#DE8EF0" opacity="1.000000" stroke="none" 
	d="
M220.729767,251.031982 
	C220.780304,251.467545 220.830841,251.903091 220.812088,252.614807 
	C220.742798,252.890976 220.502075,252.875504 220.345657,252.920532 
	C220.189240,252.965546 219.870148,253.030090 219.870148,253.030090 
	C218.932388,255.687119 217.994644,258.344147 216.784958,261.771759 
	C215.664581,261.822388 213.742386,261.909210 211.368958,261.992798 
	C211.757599,259.472198 212.597458,256.954865 214.026062,254.052032 
	C216.653122,252.788345 218.691437,251.910156 220.729767,251.031982 
z"/>
<path fill="#DE8EF0" opacity="1.000000" stroke="none" 
	d="
M178.849091,237.205078 
	C178.348068,239.379898 177.514023,241.494659 176.055237,243.858551 
	C175.004913,245.116287 174.579315,246.124893 174.153717,247.133484 
	C174.153717,247.133484 174.204987,247.197189 174.212616,247.237442 
	C173.144669,246.390442 172.069077,245.503174 170.965881,244.215118 
	C170.937424,243.481033 170.983612,243.154404 171.098511,242.590286 
	C172.485382,240.140625 173.850586,237.935089 175.247055,235.369720 
	C176.357574,235.721573 177.436813,236.433289 178.849091,237.205078 
z"/>
<path fill="#BC85D8" opacity="1.000000" stroke="none" 
	d="
M220.813324,250.633667 
	C218.691437,251.910156 216.653122,252.788345 214.302505,253.835999 
	C214.635025,250.120651 215.117157,246.093674 220.800781,246.709747 
	C220.964920,248.065216 220.930893,249.150284 220.813324,250.633667 
z"/>
<path fill="#DE8EF0" opacity="1.000000" stroke="none" 
	d="
M179.726898,236.070587 
	C179.848206,236.234970 179.782257,236.560577 179.492157,237.014465 
	C179.191986,236.789474 179.282532,236.485809 179.726898,236.070587 
z"/>
<path fill="#FCF3FC" opacity="1.000000" stroke="none" 
	d="
M294.048492,200.005020 
	C294.373138,201.742447 294.697784,203.479889 294.993042,205.604889 
	C289.621735,202.152359 284.331604,198.237305 278.920624,194.497116 
	C274.971832,191.767639 270.863800,189.268524 267.005127,186.342926 
	C266.453461,182.660797 266.011047,179.207275 264.937286,175.962708 
	C262.152679,167.548477 259.090149,159.226242 256.477844,150.916260 
	C258.567535,152.447830 260.632721,153.684952 262.013519,155.455780 
	C267.795532,162.871033 273.503052,170.352432 278.986450,177.990082 
	C284.170654,185.211014 289.040405,192.657654 294.048492,200.005020 
z"/>
<path fill="#BA01E2" opacity="1.000000" stroke="none" 
	d="
M224.966614,122.365677 
	C226.510651,122.685768 228.051331,123.399284 229.912170,124.658897 
	C230.799042,125.483955 231.365738,125.762917 231.952698,126.032364 
	C231.972931,126.022842 231.953720,126.065186 231.969345,126.438766 
	C231.320190,131.550720 230.884384,136.335205 229.941681,141.017639 
	C228.127899,150.026962 226.027130,158.978500 224.045364,167.954010 
	C221.985687,167.349091 219.916519,166.206467 217.868134,166.242599 
	C212.284927,166.341034 212.631348,163.685562 213.905716,159.619125 
	C217.741486,147.379440 221.297897,135.052185 224.966614,122.365677 
z"/>
<path fill="#000000" opacity="1.000000" stroke="none" 
	d="
M256.138550,150.867279 
	C259.090149,159.226242 262.152679,167.548477 264.937286,175.962708 
	C266.011047,179.207275 266.453461,182.660797 266.846741,186.089355 
	C259.737457,182.679581 252.965012,179.199570 246.084869,174.964478 
	C245.103806,166.045654 249.093719,159.191406 252.063263,152.092514 
	C252.550247,150.928360 254.007309,150.169998 255.064972,149.477295 
	C255.455475,150.109421 255.797012,150.488342 256.138550,150.867279 
z"/>
<path fill="#FCF3FC" opacity="1.000000" stroke="none" 
	d="
M255.015991,149.224060 
	C254.007309,150.169998 252.550247,150.928360 252.063263,152.092514 
	C249.093719,159.191406 245.103806,166.045654 245.888321,174.663269 
	C242.410385,173.543320 239.021317,171.969513 235.507263,169.838745 
	C237.200592,164.688660 239.201492,160.156845 240.771927,155.480469 
	C241.790482,152.447388 242.180740,149.203278 243.154282,145.846100 
	C244.654602,142.363220 245.853165,139.087982 247.051727,135.812744 
	C247.505554,136.134750 247.959351,136.456757 248.811920,137.183411 
	C251.145782,141.466721 253.080887,145.345383 255.015991,149.224060 
z"/>
<path fill="#9D02C9" opacity="1.000000" stroke="none" 
	d="
M224.404053,168.006149 
	C226.027130,158.978500 228.127899,150.026962 229.941681,141.017639 
	C230.884384,136.335205 231.320190,131.550720 232.288177,126.571327 
	C234.400543,129.188309 236.209717,132.046295 238.017166,135.315643 
	C238.019012,138.120392 238.487274,140.627747 237.933914,142.884598 
	C236.588593,148.371521 234.645523,153.709122 233.183975,159.171295 
	C232.231094,162.732361 231.700226,166.406342 230.980316,170.029739 
	C228.907791,169.372589 226.835251,168.715439 224.404053,168.006149 
z"/>
<path fill="#7E07AD" opacity="1.000000" stroke="none" 
	d="
M231.392090,170.062561 
	C231.700226,166.406342 232.231094,162.732361 233.183975,159.171295 
	C234.645523,153.709122 236.588593,148.371521 237.933914,142.884598 
	C238.487274,140.627747 238.019012,138.120392 238.315247,135.519562 
	C240.027542,138.892670 241.440033,142.473206 242.852524,146.053726 
	C242.180740,149.203278 241.790482,152.447388 240.771927,155.480469 
	C239.201492,160.156845 237.200592,164.688660 235.237183,169.621338 
	C233.996002,170.005722 232.899948,170.050537 231.392090,170.062561 
z"/>
<path fill="#000000" opacity="1.000000" stroke="none" 
	d="
M198.402512,333.884277 
	C199.059235,335.876099 199.490509,337.566223 200.027161,339.669373 
	C197.959320,339.669373 196.255936,339.669373 193.728958,339.669373 
	C194.718719,337.098267 195.600525,334.807617 196.482330,332.516937 
	C197.047226,332.872131 197.612137,333.227356 198.402512,333.884277 
z"/>
<path fill="#7E07AD" opacity="1.000000" stroke="none" 
	d="
M255.064972,149.477280 
	C253.080887,145.345383 251.145782,141.466721 249.082443,137.258591 
	C245.404007,131.818069 241.853806,126.707008 238.358154,121.045547 
	C239.332748,120.588066 240.565140,120.329628 241.125244,120.827515 
	C247.754929,126.720856 255.088821,132.069336 260.643951,138.863953 
	C268.238037,148.152405 274.698639,158.409653 281.200317,168.537170 
	C287.542816,178.416702 293.357635,188.636642 299.317352,198.758240 
	C300.137878,200.151733 300.458557,201.839584 301.010651,203.391144 
	C298.925232,202.268188 296.839783,201.145248 294.401428,200.013672 
	C289.040405,192.657654 284.170654,185.211014 278.986450,177.990082 
	C273.503052,170.352432 267.795532,162.871033 262.013519,155.455780 
	C260.632721,153.684952 258.567535,152.447830 256.477844,150.916260 
	C255.797012,150.488342 255.455475,150.109421 255.064972,149.477280 
z"/>
<path fill="#BB04E2" opacity="1.000000" stroke="none" 
	d="
M312.611206,202.974457 
	C314.338928,207.454178 315.719971,211.854462 317.208862,216.632950 
	C314.316803,214.351456 311.316864,211.691742 308.147003,208.357742 
	C307.484283,206.126678 307.226868,204.442215 306.462189,203.032990 
	C299.086609,189.440475 291.324127,176.048752 284.277252,162.289734 
	C277.714722,149.476395 269.066345,138.392761 258.919403,128.331604 
	C258.041565,127.461166 257.623169,126.127411 256.991364,125.008873 
	C261.367401,122.953323 264.944794,126.332832 266.950287,128.428650 
	C273.839722,135.628403 280.639740,143.224594 285.807770,151.687134 
	C293.376312,164.080475 299.543335,177.333221 306.227600,190.261093 
	C308.370209,194.405029 310.259399,198.680008 312.611206,202.974457 
z"/>
<path fill="#9D02C9" opacity="1.000000" stroke="none" 
	d="
M256.995392,125.005028 
	C257.623169,126.127411 258.041565,127.461166 258.919403,128.331604 
	C269.066345,138.392761 277.714722,149.476395 284.277252,162.289734 
	C291.324127,176.048752 299.086609,189.440475 306.462189,203.032990 
	C307.226868,204.442215 307.484283,206.126678 307.962402,208.106293 
	C305.767212,206.969543 303.586731,205.409943 301.208435,203.620743 
	C300.458557,201.839584 300.137878,200.151733 299.317352,198.758240 
	C293.357635,188.636642 287.542816,178.416702 281.200317,168.537170 
	C274.698639,158.409653 268.238037,148.152405 260.643951,138.863953 
	C255.088821,132.069336 247.754929,126.720856 241.125244,120.827515 
	C240.565140,120.329628 239.332748,120.588066 238.190887,120.758362 
	C237.138077,120.606194 236.307068,120.190796 235.316971,119.695869 
	C240.347107,115.420204 244.235443,118.296211 248.610596,119.372704 
	C251.712280,121.486565 254.351730,123.247589 256.991180,125.008614 
	C256.991180,125.008614 256.999420,125.001183 256.995392,125.005028 
z"/>
<path fill="#EFC6F6" opacity="1.000000" stroke="none" 
	d="
M243.154282,145.846100 
	C241.440033,142.473206 240.027542,138.892670 238.316956,135.108215 
	C236.209717,132.046295 234.400543,129.188309 232.272552,126.197754 
	C231.953720,126.065186 231.972931,126.022842 231.932098,125.832230 
	C231.891266,125.641624 231.795929,125.250931 231.795929,125.250931 
	C232.295822,124.871170 232.795715,124.491417 233.622742,124.064781 
	C238.228668,127.750877 242.507477,131.483856 246.919006,135.514801 
	C245.853165,139.087982 244.654602,142.363220 243.154282,145.846100 
z"/>
<path fill="#BB04E2" opacity="1.000000" stroke="none" 
	d="
M256.991272,124.641129 
	C254.351730,123.247589 251.712280,121.486565 248.998627,119.396240 
	C251.613434,120.802505 254.302414,122.538078 256.991272,124.641129 
z"/>
<path fill="#BF1FD9" opacity="1.000000" stroke="none" 
	d="
M227.754318,119.706543 
	C227.093567,119.839714 226.224991,119.711105 225.143555,119.328156 
	C225.802643,119.197456 226.674561,119.321106 227.754318,119.706543 
z"/>
<path fill="#9D02C9" opacity="1.000000" stroke="none" 
	d="
M207.984436,212.233353 
	C209.918945,213.583023 211.853455,214.932709 213.935272,216.590088 
	C213.372070,220.176590 213.089981,223.625061 211.871277,226.702652 
	C208.104996,236.213669 204.660385,245.948318 199.835159,254.920837 
	C192.904984,267.807526 183.828125,279.273834 171.161346,287.110138 
	C165.829926,290.408417 160.048355,293.939789 153.023682,290.595459 
	C153.182037,289.991913 153.464584,289.743683 154.257126,289.248108 
	C166.816910,284.850067 174.985107,275.811768 181.835739,265.880432 
	C188.597427,256.078094 194.484406,245.579361 199.817276,234.917068 
	C203.387115,227.779694 205.319397,219.823273 207.984436,212.233353 
z"/>
<path fill="#9D02C9" opacity="1.000000" stroke="none" 
	d="
M149.100876,291.287598 
	C149.182083,291.107086 149.354752,291.084320 149.786880,291.094818 
	C149.761688,291.233826 149.477005,291.339569 149.100876,291.287598 
z"/>
<path fill="#BB04E2" opacity="1.000000" stroke="none" 
	d="
M220.143646,260.201202 
	C219.929153,258.536285 220.006195,257.181488 220.253281,255.299316 
	C220.620911,254.555603 220.785980,254.316788 221.372116,254.048859 
	C232.668854,251.945618 243.537552,249.970047 254.341736,247.688950 
	C258.300995,246.853027 262.107422,245.293076 265.983551,244.063416 
	C266.361298,244.811722 266.739044,245.560028 267.146790,246.630615 
	C256.197021,250.948990 245.307800,255.226837 234.191986,258.799744 
	C229.869583,260.189056 225.035950,259.987946 220.143646,260.201202 
M221.588303,256.514069 
	C221.588303,256.514069 221.476898,256.581757 221.588303,256.514069 
z"/>
<path fill="#7E07AD" opacity="1.000000" stroke="none" 
	d="
M319.013733,209.665741 
	C314.470154,205.986755 319.342163,204.926758 321.602325,202.931351 
	C320.978577,205.057526 320.005554,207.178238 319.013733,209.665741 
z"/>
<path fill="#7E07AD" opacity="1.000000" stroke="none" 
	d="
M322.209808,202.919403 
	C322.081024,202.632111 322.225403,202.299850 322.669678,201.954163 
	C322.807373,202.251984 322.645172,202.563217 322.209808,202.919403 
z"/>
<path fill="#7E07AD" opacity="1.000000" stroke="none" 
	d="
M323.215637,201.925034 
	C323.096436,201.650070 323.251251,201.330963 323.690765,200.975342 
	C323.813538,201.252869 323.651611,201.566879 323.215637,201.925034 
z"/>
<path fill="#7E07AD" opacity="1.000000" stroke="none" 
	d="
M324.211792,200.925812 
	C324.099976,200.660431 324.260529,200.344971 324.698181,199.984283 
	C324.811554,200.251266 324.647827,200.563492 324.211792,200.925812 
z"/>
<path fill="#9D02C9" opacity="1.000000" stroke="none" 
	d="
M265.977020,243.758804 
	C262.107422,245.293076 258.300995,246.853027 254.341736,247.688950 
	C243.537552,249.970047 232.668854,251.945618 221.292389,253.745087 
	C220.673401,253.257111 220.587738,253.066315 220.502075,252.875504 
	C220.502075,252.875504 220.742798,252.890976 220.851959,252.942001 
	C222.779861,248.701538 227.024200,249.960770 230.244263,249.105453 
	C237.500259,247.178070 244.865234,245.664825 252.165237,243.897781 
	C255.938782,242.984360 259.668304,241.888947 263.837341,240.795044 
	C264.257019,240.714340 264.202515,240.800858 264.217194,241.063354 
	C264.494385,241.550064 264.756897,241.774277 265.019409,241.998489 
	C265.336426,242.483734 265.653442,242.968964 265.977020,243.758804 
z"/>
<path fill="#7E07AD" opacity="1.000000" stroke="none" 
	d="
M264.973114,241.720947 
	C264.756897,241.774277 264.494385,241.550064 264.166260,241.067795 
	C264.376038,241.020966 264.651428,241.232178 264.973114,241.720947 
z"/>
<path fill="#000000" opacity="1.000000" stroke="none" 
	d="
M325.153259,371.732391 
	C329.441681,375.972870 324.733765,376.904297 322.345856,380.490265 
	C321.364471,377.344452 320.160004,375.353699 320.433167,373.592072 
	C320.575623,372.673126 323.320068,372.157593 325.153259,371.732391 
z"/>
<path fill="#CD0FED" opacity="1.000000" stroke="none" 
	d="
M172.728714,253.078461 
	C172.803162,253.469391 172.647430,254.059387 172.229126,254.818909 
	C172.143890,254.418121 172.321213,253.847824 172.728714,253.078461 
z"/>
<path fill="#CD0FED" opacity="1.000000" stroke="none" 
	d="
M171.732071,255.143616 
	C171.795731,255.540848 171.614594,256.109650 171.165100,256.830017 
	C171.093582,256.426086 171.290421,255.870636 171.732071,255.143616 
z"/>
<path fill="#BC85D8" opacity="1.000000" stroke="none" 
	d="
M220.345657,252.920532 
	C220.587738,253.066315 220.673401,253.257111 220.838791,253.751709 
	C220.785980,254.316788 220.620911,254.555603 220.241318,254.891998 
	C220.020599,254.571335 219.981888,254.130585 219.906662,253.359970 
	C219.870148,253.030090 220.189240,252.965546 220.345657,252.920532 
z"/>
<path fill="#F095FC" opacity="1.000000" stroke="none" 
	d="
M217.208771,372.195984 
	C217.546219,371.228943 218.025833,370.534424 218.505447,369.839905 
	C218.853806,370.133240 219.202179,370.426605 219.550537,370.719940 
	C218.817352,371.302795 218.084152,371.885651 217.208771,372.195984 
z"/>
<path fill="#9D02C9" opacity="1.000000" stroke="none" 
	d="
M231.491821,125.169479 
	C231.795929,125.250931 231.891266,125.641624 231.911865,125.841751 
	C231.365738,125.762917 230.799042,125.483955 230.134369,124.883865 
	C230.420181,124.737831 230.803955,124.912926 231.491821,125.169479 
z"/>
<path fill="#BA01E2" opacity="1.000000" stroke="none" 
	d="
M207.765732,212.149246 
	C205.319397,219.823273 203.387115,227.779694 199.817276,234.917068 
	C194.484406,245.579361 188.597427,256.078094 181.835739,265.880432 
	C174.985107,275.811768 166.816910,284.850067 154.398407,289.005798 
	C153.854034,289.009613 153.678375,289.008484 153.143707,288.785156 
	C152.596664,288.287872 152.340958,288.110199 152.017548,288.029938 
	C152.019562,287.592285 152.021576,287.154633 152.042908,286.389313 
	C152.486176,286.044128 152.910126,286.026611 153.746567,286.179504 
	C154.442383,286.235016 154.725739,286.120117 155.009079,286.005188 
	C155.009079,286.005188 155.000854,286.000000 155.003235,286.005127 
	C163.189255,280.539398 167.678040,272.014893 172.252304,263.870209 
	C178.275497,253.145706 183.443832,241.916992 188.543167,230.706482 
	C191.765564,223.622284 194.191208,216.175674 196.988373,208.515533 
	C199.515121,208.824921 202.027725,209.510376 204.913757,210.748871 
	C205.885712,211.534927 206.484253,211.767944 207.082794,212.000977 
	C207.082794,212.000977 207.547028,212.065140 207.765732,212.149246 
z"/>
<path fill="#D408F6" opacity="1.000000" stroke="none" 
	d="
M152.122284,288.240204 
	C152.340958,288.110199 152.596664,288.287872 152.880249,288.780823 
	C152.668137,288.895264 152.418549,288.712524 152.122284,288.240204 
z"/>
<path fill="#D408F6" opacity="1.000000" stroke="none" 
	d="
M154.749512,286.002869 
	C154.725739,286.120117 154.442383,286.235016 154.064941,286.178467 
	C154.143875,286.004822 154.316910,286.002686 154.749512,286.002869 
z"/>
<path fill="#F095FC" opacity="1.000000" stroke="none" 
	d="
M174.486908,247.082092 
	C174.579315,246.124893 175.004913,245.116287 175.801361,244.081329 
	C175.721527,245.046890 175.270813,246.038788 174.486908,247.082092 
z"/>
<path fill="#9D02C9" opacity="1.000000" stroke="none" 
	d="
M206.933563,211.716034 
	C206.484253,211.767944 205.885712,211.534927 205.161255,210.990570 
	C205.618332,210.929855 206.201340,211.180481 206.933563,211.716034 
z"/>
<path fill="#9D02C9" opacity="1.000000" stroke="none" 
	d="
M221.532593,256.547913 
	C221.476898,256.581757 221.588303,256.514069 221.532593,256.547913 
z"/>
</svg>